<svg xmlns="http://www.w3.org/2000/svg" viewBox="0 0 19.787 19.799" height="27" width="27"><path d="M9.826 14.656c.802.454 1.505.953 2.283 1.267.921.372 1.671-.042 1.859-1.02.132-.685.093-1.417.035-2.12-.035-.416-.004-.608.434-.78.597-.233 1.194-.546 1.69-.95.903-.736.893-1.632-.035-2.343-.53-.408-1.177-.677-1.796-.955-.292-.132-.364-.24-.336-.575.062-.735.123-1.493.012-2.215-.155-1.01-.897-1.443-1.855-1.077-.666.255-1.271.695-1.863 1.11-.279.197-.423.211-.707.01-.565-.402-1.145-.82-1.781-1.072-1.119-.442-1.955.125-2.039 1.332a7.944 7.944 0 00.08 1.76c.067.427-.004.59-.43.772-.674.287-1.343.654-1.903 1.12-.65.54-.654 1.267-.073 1.89.341.366.784.653 1.22.911.381.226.816.362 1.18.518-.031.76-.114 1.488-.08 2.209.065 1.326.939 1.874 2.184 1.416.275-.1.548-.228.792-.388.413-.272.802-.58 1.129-.82m.142 5.143c-1.142-.095-2.468-.459-3.635-1.26a22.598 22.598 0 01-4.735-4.322C.623 13.025-.067 11.688.005 10.093c.05-1.13.337-2.23.93-3.192 1.4-2.27 3.14-4.256 5.346-5.769C6.991.645 7.858.299 8.702.114c1.633-.359 3.164.17 4.521 1.034a20.491 20.491 0 015.173 4.723c.657.843 1.132 1.785 1.312 2.851.276 1.637-.193 3.14-1.042 4.485a20.004 20.004 0 01-4.9 5.321c-1.146.863-2.351 1.263-3.798 1.271" fill="#5361fe"/><g fill="#5361fe" transform="translate(-92.107 -126.345)"><path d="M104.28 142.206c-.27-.097-.909-.423-1.417-.725l-.923-.548-.647.465c-2.304 1.655-3.629.964-3.39-1.768l.089-1.021-.882-.434c-.484-.239-1.116-.658-1.404-.931-1.02-.97-.62-1.844 1.289-2.817l.9-.46-.035-1.086c-.06-1.809.337-2.658 1.243-2.658.58 0 1.02.18 2.017.828.951.618.682.658 2.324-.347.534-.326.945-.48 1.28-.48 1.071 0 1.221.257 1.308 2.247l.066 1.52.992.491c2.293 1.134 2.328 2.322.103 3.484-.53.276-1.003.563-1.052.637-.049.074-.083.705-.077 1.4.014 1.487-.184 2.015-.842 2.245-.231.08-.426.144-.434.14a77.074 77.074 0 00-.507-.182z"/><rect ry="3.165" y="129.573" x="96.401" height="13.494" width="10.385"/><rect ry="2.646" y="132.715" x="94.88" height="5.887" width="14.916"/></g><path d="M11.478 3.436a.49.49 0 01.18 0c.042.012-.004.02-.102.02-.099 0-.134-.01-.078-.02z" fill="#5361fe"/><g transform="matrix(.11968 0 0 -.11968 -7.472 106.578)" clip-path="url(#clipPath1526-3-4-1)"><g clip-path="url(#clipPath1536-7-2-6)"><path d="M214.184 803.164c-2.77-4.902-9.157-9.453-18.465-13.16a94.922 94.922 0 00-7.324-2.543c-.504-.152-1.012-.305-1.528-.453a136.5 136.5 0 01-3.207 9.422h-.008c-.859 0-1.66.308-2.261.867a3.096 3.096 0 00-.508.609l-.024-.023a5.757 5.757 0 00-1.386-.942 135.6 135.6 0 003.804-10.906c-.515-.129-1.027-.262-1.547-.387-4.722-1.132-9.746-2.046-14.984-2.73-.687-.086-1.379-.172-2.074-.25a185.456 185.456 0 018.336 14.016 5.893 5.893 0 00-1.559.832c-.601-.696-1.476-1.086-2.445-1.086h-.371l-.809-1.45a184.21 184.21 0 00-7.957-12.812c-.676-.059-1.359-.113-2.043-.164a183.496 183.496 0 00-12.476-.543c-4.231-.039-8.399.074-12.485.312-.683.039-1.367.079-2.047.129a182.97 182.97 0 00-9.515 14.953c-.27.114-.524.243-.77.391-.644-.531-1.48-.816-2.406-.816h-.855a192.91 192.91 0 012.152-3.754 191.341 191.341 0 016.582-10.364c-.695.067-1.391.137-2.078.215-5.25.586-10.289 1.407-15.031 2.45-.524.117-1.036.242-1.551.363a134.402 134.402 0 003.644 11.09h-.754c-.507 0-.992.086-1.429.25a4.12 4.12 0 00-1.43-.25h-.352a137.388 137.388 0 01-3.289-10.184 95.041 95.041 0 00-8.902 2.832c-12.832 4.836-20.223 11.43-20.285 18.094-.059 6.664 7.211 13.394 19.949 18.465a92.99 92.99 0 007.32 2.543c.504.156 1.016.304 1.528.453a136.319 136.319 0 013.207-9.422h.75c1.246 0 2.297-.52 2.965-1.371.172.215.371.406.586.574a136.414 136.414 0 00-3.918 11.191c.515.129 1.027.262 1.546.387 4.723 1.133 9.747 2.047 14.985 2.731.687.089 1.379.172 2.074.254a190.32 190.32 0 01-6.391-10.485 204.646 204.646 0 01-2.089-3.804 3.687 3.687 0 001.648-2.079 5.653 5.653 0 001.254 1.352c.414.324.871.594 1.375.809.348.628.695 1.261 1.055 1.89a182.697 182.697 0 007.953 12.813c.676.062 1.359.113 2.043.168 4.078.312 8.246.5 12.476.539 4.231.039 8.403-.075 12.485-.313.683-.039 1.367-.078 2.047-.125a183.195 183.195 0 008.187-12.668 177.783 177.783 0 001.766-3.058 6.41 6.41 0 00.562-.457c.152-.141.309-.301.465-.489.211.278.426.508.637.7a5.813 5.813 0 002.058 1.214c-.742 1.328-1.5 2.657-2.281 3.981a191.043 191.043 0 01-6.582 10.367c.695-.07 1.391-.141 2.078-.219 5.25-.586 10.289-1.402 15.031-2.449.524-.117 1.036-.242 1.555-.363a136.787 136.787 0 00-3.777-11.434 5.775 5.775 0 001.765-1.109l.024-.024c.14.223.312.43.508.614a3.242 3.242 0 001.785.832 138.172 138.172 0 013.301 10.218c.519-.14 1.031-.281 1.539-.425a92.234 92.234 0 007.367-2.411c12.828-4.835 20.219-11.429 20.281-18.093.016-1.754-.48-3.539-1.48-5.305m-29.688-51.992c-.976-1.723-2.215-3.035-3.684-3.902-1.527-.899-3.324-1.344-5.347-1.344-5.449 0-12.535 3.219-20.317 9.363-7.394 5.84-14.89 13.84-21.906 23.27a187.475 187.475 0 0112.137-.286c3.394.032 6.754.157 10.062.364.692.043 1.379.093 2.063.144-3.527-4.926-7.188-9.48-10.906-13.551a120.56 120.56 0 012.636-2.625c4.504 4.911 8.914 10.504 13.11 16.598.703.07 1.398.149 2.094.227 6.382.726 12.488 1.781 18.167 3.148.52.125 1.032.262 1.543.391.872-3.219 1.571-6.352 2.063-9.36 1.598-9.687.988-17.656-1.715-22.437m-78.781 113.297c.976 1.722 2.215 3.035 3.687 3.902 1.524.902 3.321 1.344 5.344 1.344 5.453 0 12.535-3.219 20.316-9.363 7.395-5.84 14.891-13.84 21.907-23.266-.688.035-1.375.074-2.063.102a187.427 187.427 0 01-20.136-.184c-.692-.043-1.379-.094-2.063-.145 3.527 4.93 7.188 9.481 10.906 13.551a112.54 112.54 0 01-2.636 2.629c-4.504-4.914-8.915-10.508-13.11-16.601-.703-.071-1.398-.145-2.094-.227-6.382-.727-12.488-1.781-18.168-3.149-.519-.124-1.031-.261-1.543-.39-.871 3.219-1.57 6.351-2.062 9.359-1.598 9.688-.988 17.657 1.715 22.438m90.793-34.922a97.315 97.315 0 01-9.215 2.933c.844 3.356 1.508 6.625 1.965 9.766 2.23 15.274-.52 25.934-7.735 30.012-2.062 1.164-4.394 1.742-6.953 1.742-6.402 0-14.222-3.605-22.75-10.598a96.243 96.243 0 01-6.027-5.406c.883-.848 1.762-1.723 2.641-2.625a93.339 93.339 0 005.746 5.156c7.785 6.383 14.91 9.739 20.394 9.739 1.922 0 3.641-.414 5.117-1.246 5.704-3.223 7.848-12.786 5.887-26.239-.441-3.015-1.082-6.164-1.89-9.394-.516.121-1.032.246-1.555.359-5.703 1.266-11.824 2.207-18.219 2.816-.695.067-1.394.129-2.098.188-7.734 10.801-16.144 19.965-24.445 26.52-8.516 6.722-16.281 10.179-22.625 10.179-2.684 0-5.113-.621-7.234-1.871-2.071-1.219-3.774-3-5.071-5.297-3.144-5.562-3.875-14.156-2.113-24.851.516-3.133 1.242-6.387 2.145-9.731a97.572 97.572 0 01-9.157-3.097c-10.019-3.989-16.957-9.008-20.07-14.516-1.273-2.258-1.91-4.594-1.887-6.941.075-8.172 8.012-15.649 22.348-21.051a96.681 96.681 0 017.672-2.508 86.35 86.35 0 011.539-.422c-.84-3.359-1.508-6.629-1.965-9.769-2.226-15.274.52-25.934 7.735-30.012 2.062-1.164 4.394-1.738 6.953-1.738 6.402 0 14.222 3.601 22.75 10.593a99.159 99.159 0 016.027 5.407c-.883.851-1.762 1.722-2.641 2.625a92.298 92.298 0 00-5.746-5.153c-7.785-6.387-14.91-9.738-20.394-9.738-1.922 0-3.641.41-5.117 1.242-5.704 3.223-7.848 12.785-5.887 26.238.441 3.016 1.082 6.164 1.89 9.399.516-.121 1.032-.246 1.555-.363 5.703-1.266 11.828-2.207 18.219-2.817.695-.066 1.394-.129 2.098-.187 7.734-10.801 16.144-19.965 24.445-26.52 8.515-6.723 16.281-10.18 22.625-10.18 2.683 0 5.113.621 7.238 1.871 2.067 1.219 3.77 3 5.067 5.297l-.231.129.231-.129c3.144 5.563 3.875 14.157 2.113 24.856-.516 3.129-1.242 6.387-2.145 9.726a96.435 96.435 0 019.16 3.102c14.235 5.664 22.032 13.285 21.954 21.457-.075 8.168-8.012 15.645-22.344 21.047" fill="#fff"/><path d="M95.539 810.113c0-1.23-.644-1.578-1.578-1.578h-1.508v5.403h1.508c.934 0 1.578-.348 1.578-1.579zm-3.086-4.043h1.457l1.922-6.066c.176-.566.543-.816 1.109-.816h.864c.715 0 1.039.468.816 1.136l-2.098 6.188c1.184.519 1.875 1.554 1.875 3.207v3.082c0 2.617-1.726 3.652-4.339 3.652h-3.477c-.644 0-.988-.348-.988-.988v-15.289c0-.641.344-.988.988-.988h.887c.64 0 .984.347.984.988zm8.262 9.395v-15.289c0-.641.347-.988.988-.988h5.672c.641 0 .984.347.984.988v.543c0 .64-.343.984-.984.984h-3.797v4.985h2.957c.641 0 .988.343.988.984v.543c0 .64-.347.988-.988.988h-2.957v4.735h3.723c.64 0 .984.343.984.984v.543c0 .64-.344.988-.984.988h-5.598c-.641 0-.988-.348-.988-.988m12.183-10.063l1.207 7.672 1.211-7.672zm-.714 10.16l-2.836-15.312c-.125-.691.222-1.062.886-1.062H111c.59 0 .961.296 1.059.914l.468 2.933h3.157l.468-2.933c.102-.618.469-.914 1.063-.914h.91c.668 0 1.012.371.891 1.062l-2.887 15.312c-.098.594-.492.891-1.086.891h-1.773c-.594 0-.989-.297-1.086-.891M129.199 813c0 2.562-1.726 3.648-4.34 3.648h-.05c-2.614 0-4.34-1.086-4.34-3.648v-10.359c0-2.688 1.726-3.649 4.34-3.649h.05c2.614 0 4.34.985 4.34 3.649v2.589c0 .641-.344.989-.984.989h-.891c-.64 0-.984-.348-.984-.989v-2.144c0-1.207-.594-1.578-1.504-1.578-.914 0-1.508.371-1.508 1.578v9.469c0 1.211.594 1.578 1.508 1.578.91 0 1.504-.367 1.504-1.578v-1.727c0-.64.344-.984.984-.984h.891c.64 0 .984.344.984.984zm6.832.938h1.899c.64 0 .984.343.984.984v.543c0 .64-.344.988-.984.988h-6.66c-.641 0-.985-.348-.985-.988v-.543c0-.641.344-.984.985-.984h1.898v-13.762c0-.641.348-.988.988-.988h.887c.641 0 .988.347.988.988zm10.996-13.516h-5.004v6.906h4.168c.321 0 .516.195.516.516v.199c0 .32-.195.516-.516.516h-4.168v6.66h4.934c.32 0 .516.199.516.519v.219c0 .324-.196.496-.516.496h-5.746c-.32 0-.52-.172-.52-.496v-16.273c0-.321.2-.496.52-.496h5.816c.325 0 .52.175.52.496v.218c0 .325-.195.52-.52.52m10.262 16.031h-.32c-.321 0-.496-.172-.496-.496v-12.871c0-2.047-.664-2.859-2.614-2.859-1.949 0-2.613.812-2.613 2.859v12.871c0 .324-.172.496-.492.496h-.32c-.321 0-.52-.172-.52-.496v-13.316c0-2.489 1.281-3.649 3.898-3.649h.098c2.613 0 3.895 1.184 3.895 3.649v13.316c0 .324-.196.496-.516.496m7.695-8.609h-2.64v7.375h2.64c1.946 0 2.711-.813 2.711-2.86v-1.652c0-2.023-.765-2.863-2.711-2.863m3.625-8.656h.395c.367 0 .516.25.394.593l-2.738 7.055c1.578.418 2.367 1.578 2.367 3.449v2.516c0 2.418-1.332 3.652-3.945 3.652h-3.551c-.32 0-.519-.172-.519-.496v-16.273c0-.321.199-.496.519-.496h.321c.32 0 .492.175.492.496v6.953h3.008l2.687-7.028c.102-.297.297-.421.57-.421m7.325 1.039c-1.95 0-2.715.812-2.715 2.859v9.469c0 2.047.765 2.863 2.715 2.863 1.945 0 2.711-.816 2.711-2.863v-9.469c0-2.047-.766-2.859-2.711-2.859M179.977 813c0 2.418-1.332 3.648-3.946 3.648h-.199c-2.613 0-3.945-1.207-3.945-3.648v-10.359c0-2.414 1.332-3.649 3.945-3.649h.199c2.614 0 3.946 1.235 3.946 3.649zm9.839-.641v-1.824c0-2.047-.765-2.863-2.714-2.863h-2.637v7.547h2.637c1.949 0 2.714-.813 2.714-2.86m-6.683 3.598v-16.273c0-.321.199-.496.519-.496h.321c.32 0 .492.175.492.496v6.757h2.738c2.613 0 3.945 1.231 3.945 3.649v2.711c0 2.418-1.332 3.652-3.945 3.652h-3.551c-.32 0-.519-.172-.519-.496m10.629 0v-16.273c0-.321.199-.496.519-.496h5.821c.32 0 .515.175.515.496v.218c0 .325-.195.52-.515.52h-5.008v6.906h4.168c.32 0 .515.195.515.516v.199c0 .32-.195.516-.515.516h-4.168v6.66h4.933c.321 0 .516.199.516.519v.219c0 .324-.195.496-.516.496h-5.746c-.32 0-.519-.172-.519-.496" fill="#fff"/><path d="M143.598 821.445l1.507 1.071 1.512-1.071-.551 1.766 1.481 1.105-1.848.024-.594 1.754-.593-1.754-1.848-.024 1.481-1.105zm2.101-29l-.594 1.75-.593-1.75-1.848-.023 1.481-1.106-.547-1.765 1.507 1.066 1.508-1.066-.547 1.765 1.481 1.106zm-10.344 26.813l1.512 1.066 1.508-1.066-.551 1.765 1.485 1.106-1.848.023-.594 1.75-.594-1.75-1.851-.023 1.484-1.106zm16.481 0l1.512 1.066 1.507-1.066-.55 1.765 1.484 1.106-1.851.023-.59 1.75-.594-1.75-1.852-.023 1.485-1.106zm1.902-24.887l-.593 1.75-.594-1.75-1.848-.023 1.485-1.106-.551-1.765 1.508 1.07 1.511-1.07-.551 1.765 1.481 1.106zm-16.078 0l-.594 1.75-.593-1.75-1.848-.023 1.48-1.106-.55-1.765 1.511 1.07 1.508-1.07-.547 1.765 1.481 1.106z" fill="#f1ee1c"/></g></g></svg>